<svg version="1.1" id="Layer_1" xmlns="http://www.w3.org/2000/svg" xmlns:xlink="http://www.w3.org/1999/xlink" x="0px" y="0px"
	 width="100%" viewBox="0 0 300 300" enable-background="new 0 0 300 300" xml:space="preserve">
<path fill="#FFFFFF" opacity="1.000000" stroke="none" 
	d="
M301.000000,111.000000 
	C301.000000,174.666656 301.000000,237.833313 301.000000,301.000000 
	C201.000031,301.000000 101.000061,301.000000 1.000066,301.000000 
	C1.000044,201.000046 1.000044,101.000092 1.000022,1.000106 
	C100.999939,1.000071 200.999878,1.000071 300.999908,1.000035 
	C301.000000,37.500000 301.000000,74.000000 301.000000,111.000000 
M50.048801,200.943222 
	C50.084301,209.632309 50.119801,218.321381 50.046505,227.940613 
	C50.082428,238.298233 50.118351,248.655869 50.045914,259.942108 
	C50.030323,264.547302 49.929718,269.154205 50.021114,273.757294 
	C50.130207,279.251648 52.728951,282.435150 58.729744,284.139130 
	C59.469349,284.210724 60.208958,284.282318 61.279575,284.340973 
	C61.279575,284.340973 61.469948,284.069885 62.122566,284.728607 
	C67.416679,284.764771 72.710800,284.800934 78.934319,284.959229 
	C99.965874,284.927185 120.997437,284.895111 142.527283,284.967743 
	C142.692719,284.929932 142.858139,284.892151 143.950638,284.977020 
	C161.302963,284.931763 178.655273,284.886505 196.662231,284.972900 
	C197.102493,284.926453 197.542755,284.880005 198.913116,284.973633 
	C212.337616,284.983429 225.762222,285.026825 239.186584,284.988922 
	C246.014359,284.969635 250.514206,280.777985 251.847916,273.567383 
	C251.849289,253.724442 251.850662,233.881516 251.978806,213.104202 
	C251.930984,206.070877 251.883163,199.037552 251.978134,191.075882 
	C251.930298,183.051193 251.882477,175.026505 251.975906,166.232666 
	C251.951340,158.577118 252.015869,150.919891 251.870926,143.266632 
	C251.774216,138.160477 251.379135,133.059967 251.042084,127.200813 
	C251.235291,125.859673 251.543655,124.523277 251.599060,123.176468 
	C251.738510,119.785683 251.763870,116.390190 251.974030,112.068962 
	C251.982681,85.537590 252.006973,59.006187 251.959564,32.474915 
	C251.956833,30.950813 251.369659,29.427755 251.011322,27.125937 
	C250.153564,21.033323 246.513916,17.047659 241.184418,17.039862 
	C216.807648,17.004200 192.430649,17.111406 167.411774,17.178389 
	C166.702087,17.935217 165.992401,18.692045 164.913666,19.182552 
	C164.913666,19.182552 164.497070,19.365749 163.895081,19.654940 
	C162.238907,22.070404 160.582718,24.485867 158.208374,27.397537 
	C158.141586,44.932446 158.064148,62.467339 158.047485,80.002296 
	C158.046829,80.696159 158.625366,81.390579 158.979996,82.495758 
	C158.979996,82.495758 158.903397,82.902184 158.045273,82.978966 
	C156.031876,83.040344 154.018494,83.101715 151.074905,83.031860 
	C139.963654,83.028778 128.851959,82.965462 117.741280,83.043533 
	C110.177391,83.096672 104.331505,87.890472 104.069443,94.470703 
	C103.865593,99.589249 104.215889,104.729874 104.121597,110.666153 
	C104.136742,115.777809 104.151878,120.889473 104.043304,126.857201 
	C104.083725,128.584763 104.124153,130.312317 104.107399,132.684387 
	C104.363243,132.983414 104.619080,133.282425 104.333405,134.218765 
	C104.325623,135.855820 104.317841,137.492889 104.114388,139.862122 
	C104.043739,143.207443 103.973091,146.552780 102.982109,149.966949 
	C89.724014,149.979645 76.465729,149.954315 63.207886,150.018860 
	C54.836727,150.059616 50.013210,154.898148 50.006256,163.136429 
	C50.003456,166.448746 50.093121,169.761108 50.043278,173.992645 
	C50.081112,182.666122 50.118946,191.339615 50.048801,200.943222 
z"/>
<path fill="#DFA20F" opacity="1.000000" stroke="none" 
	d="
M158.903397,82.902184 
	C158.903397,82.902184 158.979996,82.495758 158.978119,81.836334 
	C159.636200,74.781837 160.296143,68.386780 161.332520,61.989677 
	C162.352249,61.853100 163.058441,61.846153 163.629440,61.564831 
	C171.912598,57.483810 180.131302,53.268944 188.463196,49.290867 
	C194.099960,46.599586 199.896484,44.244003 205.609360,41.710747 
	C210.709946,39.448990 215.830414,37.227077 220.875580,34.846607 
	C226.908401,32.000141 232.792892,28.826809 238.896927,26.149128 
	C241.834976,24.860289 245.129395,24.383833 248.999390,23.340906 
	C248.999390,29.059793 248.869202,33.203445 249.037109,37.334980 
	C249.195435,41.231022 249.667603,45.114307 249.924332,49.377777 
	C246.794647,50.727818 243.614502,51.420067 240.713028,52.729694 
	C230.338257,57.412537 220.129105,62.466148 209.714554,67.055565 
	C203.730728,69.692474 197.636612,72.710564 191.295975,73.749420 
	C183.026062,75.104370 174.462189,74.656036 166.025894,75.009941 
	C163.412979,75.119560 160.882126,75.413498 161.000763,79.411018 
	C161.002182,81.182922 161.004059,82.544411 160.690002,83.910866 
	C159.883835,83.577942 159.393616,83.240059 158.903397,82.902184 
z"/>
<path fill="#E2A710" opacity="1.000000" stroke="none" 
	d="
M250.001709,49.003204 
	C249.667603,45.114307 249.195435,41.231022 249.037109,37.334980 
	C248.869202,33.203445 248.999390,29.059793 248.999390,23.340906 
	C245.129395,24.383833 241.834976,24.860289 238.896927,26.149128 
	C232.792892,28.826809 226.908401,32.000141 220.875580,34.846607 
	C215.830414,37.227077 210.709946,39.448990 205.609360,41.710747 
	C199.896484,44.244003 194.099960,46.599586 188.463196,49.290867 
	C180.131302,53.268944 171.912598,57.483810 163.629440,61.564831 
	C163.058441,61.846153 162.352249,61.853100 161.335068,61.530350 
	C160.626724,50.054863 160.292252,39.036671 160.233521,27.809986 
	C161.838531,24.856247 163.167801,22.111000 164.497070,19.365749 
	C164.497070,19.365749 164.913666,19.182552 165.548279,19.472752 
	C168.980057,19.509472 171.776596,19.044704 174.574524,19.036221 
	C195.386276,18.973110 216.198334,19.000511 237.010284,18.999529 
	C238.594818,18.999454 240.179337,18.999521 241.763870,18.999521 
	C219.056076,17.997541 196.436264,18.017590 173.816635,17.961538 
	C171.895035,17.956778 169.974670,17.444042 168.053741,17.167292 
	C192.430649,17.111406 216.807648,17.004200 241.184418,17.039862 
	C246.513916,17.047659 250.153564,21.033323 251.013367,27.989082 
	C250.997772,35.571262 250.980148,42.290295 250.722321,49.006454 
	C250.482132,49.003574 250.001694,49.003204 250.001709,49.003204 
z"/>
<path fill="#D5920F" opacity="1.000000" stroke="none" 
	d="
M251.117599,127.956940 
	C251.379135,133.059967 251.774216,138.160477 251.870926,143.266632 
	C252.015869,150.919891 251.951340,158.577118 251.529404,166.602783 
	C250.382980,166.065735 249.314087,165.253586 249.051483,164.233795 
	C248.225189,161.025269 246.432724,160.830734 243.847839,162.077423 
	C235.546677,166.081100 227.200058,169.991852 218.934387,174.067078 
	C215.810776,175.607117 214.419876,174.808395 212.888428,171.641174 
	C210.738800,167.195511 207.674713,163.192001 205.000229,158.578522 
	C203.648270,147.349060 202.427139,136.521805 200.870132,125.743073 
	C200.390778,122.424728 198.994186,119.238884 198.013641,115.587250 
	C197.663391,113.443146 197.317078,111.704163 196.951935,109.538315 
	C196.858475,107.402802 196.783859,105.694160 196.775055,103.537262 
	C196.881470,100.057938 196.922043,97.026871 197.314667,94.030609 
	C204.222046,98.000252 205.010300,105.091850 206.928513,111.445717 
	C208.833481,117.755753 209.949005,124.303398 211.836197,130.619720 
	C213.906128,137.547638 218.915436,138.872818 224.756332,134.854141 
	C227.695511,132.831909 231.177811,131.580322 234.463318,130.087708 
	C236.255844,129.273346 238.656815,129.178207 239.905106,127.900589 
	C243.851761,123.861214 247.398010,123.760452 251.117599,127.956940 
z"/>
<path fill="#CE880E" opacity="1.000000" stroke="none" 
	d="
M198.017609,115.992371 
	C198.994186,119.238884 200.390778,122.424728 200.870132,125.743073 
	C202.427139,136.521805 203.648270,147.349060 204.999390,159.016907 
	C207.398361,176.000458 207.039963,192.710403 214.504944,208.020081 
	C218.422134,206.523346 221.683105,205.365936 224.873886,204.039658 
	C231.400787,201.326675 237.909836,198.568420 244.384720,195.733963 
	C246.925598,194.621674 249.355118,193.255035 251.835358,192.004227 
	C251.883163,199.037552 251.930984,206.070877 251.657837,213.859406 
	C250.560410,217.747635 249.783966,220.880661 248.753021,223.729721 
	C246.896927,223.504211 245.282654,223.453949 243.695938,223.639511 
	C235.928009,224.548004 230.680862,232.313904 222.247574,231.578918 
	C221.673050,231.528839 220.991806,232.573486 220.377670,233.128342 
	C215.961792,237.118027 214.192459,236.875214 212.668884,231.171570 
	C210.127075,221.655975 207.669510,212.074463 206.007172,202.378281 
	C203.895309,190.059967 202.724304,177.582977 200.893478,165.212006 
	C200.428101,162.067474 199.000931,159.065262 198.012421,155.529175 
	C198.011978,142.037918 198.014801,129.015137 198.017609,115.992371 
z"/>
<path fill="#D18C0F" opacity="1.000000" stroke="none" 
	d="
M251.906738,191.540054 
	C249.355118,193.255035 246.925598,194.621674 244.384720,195.733963 
	C237.909836,198.568420 231.400787,201.326675 224.873886,204.039658 
	C221.683105,205.365936 218.422134,206.523346 214.504944,208.020081 
	C207.039963,192.710403 207.398361,176.000458 205.000916,159.437775 
	C207.674713,163.192001 210.738800,167.195511 212.888428,171.641174 
	C214.419876,174.808395 215.810776,175.607117 218.934387,174.067078 
	C227.200058,169.991852 235.546677,166.081100 243.847839,162.077423 
	C246.432724,160.830734 248.225189,161.025269 249.051483,164.233795 
	C249.314087,165.253586 250.382980,166.065735 251.458771,166.987366 
	C251.882477,175.026505 251.930298,183.051193 251.906738,191.540054 
z"/>
<path fill="#D8980F" opacity="1.000000" stroke="none" 
	d="
M251.079834,127.578873 
	C247.398010,123.760452 243.851761,123.861214 239.905106,127.900589 
	C238.656815,129.178207 236.255844,129.273346 234.463318,130.087708 
	C231.177811,131.580322 227.695511,132.831909 224.756332,134.854141 
	C218.915436,138.872818 213.906128,137.547638 211.836197,130.619720 
	C209.949005,124.303398 208.833481,117.755753 206.928513,111.445717 
	C205.010300,105.091850 204.222046,98.000252 197.207718,93.820198 
	C196.566620,93.304047 196.322830,93.111008 195.990677,92.645187 
	C194.288834,89.891960 192.613663,87.489433 191.153091,84.809128 
	C193.132706,85.082245 195.111404,85.292404 196.626221,86.242302 
	C203.676147,90.663094 208.204742,97.364265 212.684616,104.165291 
	C213.614685,105.577225 216.403427,107.114441 217.719879,106.688957 
	C223.464706,104.832230 228.965195,102.229797 234.587906,99.981918 
	C239.722870,97.929039 244.900925,95.983978 250.065155,94.460197 
	C250.070663,99.591499 249.939102,104.260040 250.152313,108.912788 
	C250.215744,110.296852 251.247101,111.636559 251.834946,112.996590 
	C251.763870,116.390190 251.738510,119.785683 251.599060,123.176468 
	C251.543655,124.523277 251.235291,125.859673 251.079834,127.578873 
z"/>
<path fill="#C9800E" opacity="1.000000" stroke="none" 
	d="
M251.130249,274.053314 
	C250.514206,280.777985 246.014359,284.969635 239.186584,284.988922 
	C225.762222,285.026825 212.337616,284.983429 198.335632,284.667847 
	C197.506821,283.907959 197.255463,283.453857 197.462616,283.000122 
	C199.086166,283.000366 200.251190,283.000580 201.416229,282.999939 
	C209.003021,282.995667 209.555786,282.946838 208.880142,275.289032 
	C207.633469,261.159149 205.667816,247.092728 204.360291,233.061874 
	C205.818085,235.793518 207.067596,238.412735 207.984177,241.143692 
	C209.709595,246.284531 211.090561,251.544235 212.912186,256.648346 
	C214.042206,259.814667 216.725815,260.936951 219.757553,259.521942 
	C226.694595,256.284241 233.623718,252.986755 240.303879,249.261337 
	C243.239151,247.624405 245.801788,246.426239 249.001770,248.418991 
	C249.001923,250.221344 249.001877,251.607773 249.001801,253.370605 
	C249.665390,254.830444 250.329010,255.913864 250.994751,257.459412 
	C250.923279,261.344299 250.795059,264.767151 250.797241,268.189911 
	C250.798492,270.144440 251.012207,272.098846 251.130249,274.053314 
M249.482788,276.588440 
	C249.482788,276.588440 249.415985,276.476685 249.482788,276.588440 
z"/>
<path fill="#F3CF45" opacity="1.000000" stroke="none" 
	d="
M190.938492,85.086914 
	C192.613663,87.489433 194.288834,89.891960 195.601624,92.602173 
	C192.403503,93.154236 189.253174,92.685287 186.788849,93.771973 
	C178.163681,97.575417 169.772873,101.910767 161.297440,106.053108 
	C154.512268,109.369347 147.709641,112.651031 140.957916,116.034180 
	C132.398911,120.322945 123.979446,124.905006 115.303932,128.939392 
	C111.653435,130.636963 108.682716,132.435562 107.234657,136.399628 
	C106.826569,137.516785 105.315331,138.230957 104.310051,139.129944 
	C104.317841,137.492889 104.325623,135.855820 104.576263,133.605042 
	C104.600937,132.674179 104.382759,132.357025 104.164574,132.039886 
	C104.124153,130.312317 104.083725,128.584763 104.450043,126.352692 
	C107.213593,120.129974 109.534073,115.330971 116.351082,112.422966 
	C132.283142,105.626678 147.511887,97.186134 163.062439,89.486176 
	C165.418427,88.319588 167.623596,87.297165 167.462585,84.044678 
	C175.600098,84.370445 183.269287,84.728676 190.938492,85.086914 
z"/>
<path fill="#F7DA5C" opacity="1.000000" stroke="none" 
	d="
M58.000542,283.840149 
	C52.728951,282.435150 50.130207,279.251648 50.021114,273.757294 
	C49.929718,269.154205 50.030323,264.547302 50.309814,259.473633 
	C50.573715,259.005157 50.993729,259.002441 50.995415,259.468018 
	C50.997097,264.229767 50.997097,268.525909 50.997097,272.822083 
	C51.333935,272.819733 51.670769,272.817383 52.007607,272.815033 
	C52.007607,270.210449 52.007607,267.605835 52.386131,264.995483 
	C53.258808,264.927429 53.797554,264.972107 54.240631,264.787354 
	C66.908424,259.505127 79.551270,254.162811 92.230949,248.909378 
	C103.395737,244.283585 114.466217,239.374390 125.847984,235.353653 
	C130.891754,233.571854 136.000443,229.202225 142.030792,233.459564 
	C142.033463,237.276321 142.023758,240.635361 141.655670,243.937057 
	C136.778809,239.944489 132.807114,243.629700 128.979568,245.119171 
	C112.466972,251.545013 96.066811,258.262543 79.669266,264.980133 
	C70.796326,268.615112 62.010929,272.463806 52.541008,276.490326 
	C54.641758,279.318420 56.321148,281.579285 58.000542,283.840149 
z"/>
<path fill="#F2CD42" opacity="1.000000" stroke="none" 
	d="
M104.212219,139.496033 
	C105.315331,138.230957 106.826569,137.516785 107.234657,136.399628 
	C108.682716,132.435562 111.653435,130.636963 115.303932,128.939392 
	C123.979446,124.905006 132.398911,120.322945 140.957916,116.034180 
	C147.709641,112.651031 154.512268,109.369347 161.297440,106.053108 
	C169.772873,101.910767 178.163681,97.575417 186.788849,93.771973 
	C189.253174,92.685287 192.403503,93.154236 195.628296,92.952866 
	C196.322830,93.111008 196.566620,93.304047 196.855682,93.785400 
	C196.922043,97.026871 196.881470,100.057938 196.441559,103.531441 
	C194.724518,103.103561 193.406799,102.233253 191.764496,101.148560 
	C184.908127,104.623535 177.847046,108.239510 170.752045,111.787674 
	C163.673874,115.327415 156.555420,118.786446 149.466171,122.304192 
	C141.661758,126.176811 133.872070,130.079086 126.072800,133.962128 
	C122.821320,135.580963 119.687317,137.552948 116.278114,138.711990 
	C110.281631,140.750641 106.947739,144.706711 105.755661,150.902313 
	C105.334579,150.968491 105.165054,150.987701 104.761742,150.879166 
	C104.319450,150.466965 104.110947,150.182541 103.902435,149.898102 
	C103.973091,146.552780 104.043739,143.207443 104.212219,139.496033 
z"/>
<path fill="#F6D959" opacity="1.000000" stroke="none" 
	d="
M58.365143,283.989624 
	C56.321148,281.579285 54.641758,279.318420 52.541008,276.490326 
	C62.010929,272.463806 70.796326,268.615112 79.669266,264.980133 
	C96.066811,258.262543 112.466972,251.545013 128.979568,245.119171 
	C132.807114,243.629700 136.778809,239.944489 141.707001,243.923950 
	C142.116714,243.968185 142.223007,243.968933 142.161560,244.413223 
	C142.071732,247.238861 142.043335,249.620209 141.661392,251.965424 
	C139.217163,251.770676 137.006454,251.105515 135.062469,251.566086 
	C131.721008,252.357742 128.507095,253.756714 125.307236,255.065948 
	C105.096657,263.335175 84.893585,271.623230 64.735870,280.019928 
	C63.607101,280.490143 62.903008,281.979889 61.748692,283.151245 
	C61.313614,283.656219 61.131088,284.005035 60.948563,284.353882 
	C60.208958,284.282318 59.469349,284.210724 58.365143,283.989624 
z"/>
<path fill="#F4D249" opacity="1.000000" stroke="none" 
	d="
M166.994263,84.077156 
	C167.623596,87.297165 165.418427,88.319588 163.062439,89.486176 
	C147.511887,97.186134 132.283142,105.626678 116.351082,112.422966 
	C109.534073,115.330971 107.213593,120.129974 104.511894,125.924652 
	C104.151878,120.889473 104.136742,115.777809 104.635002,110.290771 
	C107.079430,107.624245 108.558472,104.451866 111.017693,103.190529 
	C123.377739,96.851059 135.094635,89.010849 149.012192,86.053558 
	C150.162613,85.809113 151.014511,84.159714 152.005096,83.163101 
	C154.018494,83.101715 156.031876,83.040344 158.474335,82.940575 
	C159.393616,83.240059 159.883835,83.577942 161.116669,83.945007 
	C163.570938,84.008514 165.282608,84.042831 166.994263,84.077156 
z"/>
<path fill="#F5D54D" opacity="1.000000" stroke="none" 
	d="
M151.540009,83.097481 
	C151.014511,84.159714 150.162613,85.809113 149.012192,86.053558 
	C135.094635,89.010849 123.377739,96.851059 111.017693,103.190529 
	C108.558472,104.451866 107.079430,107.624245 104.734154,109.888039 
	C104.215889,104.729874 103.865593,99.589249 104.069443,94.470703 
	C104.331505,87.890472 110.177391,83.096672 117.741280,83.043533 
	C128.851959,82.965462 139.963654,83.028778 151.540009,83.097481 
z"/>
<path fill="#F9E484" opacity="1.000000" stroke="none" 
	d="
M103.442276,149.932526 
	C104.110947,150.182541 104.319450,150.466965 104.471756,151.173386 
	C99.040771,152.804123 93.622734,151.823532 88.071419,154.521805 
	C76.523056,160.135025 64.204796,164.164307 52.011993,168.919037 
	C52.011993,172.699829 52.011993,176.351990 52.008698,180.468384 
	C52.006935,185.288971 52.008472,189.645325 52.006859,194.451508 
	C52.005463,197.601318 52.007217,200.301270 52.005787,203.455200 
	C52.003925,206.939453 52.005245,209.969757 52.003059,213.332962 
	C51.997200,214.109772 51.994854,214.553665 51.746143,214.998230 
	C51.499779,214.998901 51.007053,214.996948 51.005676,214.531036 
	C50.999489,209.378372 50.994675,204.691620 50.993332,199.535934 
	C50.997509,195.931320 51.095879,192.791977 50.977421,189.660812 
	C50.768135,184.129059 50.426777,178.602310 50.140701,173.073456 
	C50.093121,169.761108 50.003456,166.448746 50.006256,163.136429 
	C50.013210,154.898148 54.836727,150.059616 63.207886,150.018860 
	C76.465729,149.954315 89.724014,149.979645 103.442276,149.932526 
z"/>
<path fill="#FFBE00" opacity="1.000000" stroke="none" 
	d="
M159.957794,28.018475 
	C160.292252,39.036671 160.626724,50.054863 160.958649,61.532387 
	C160.296143,68.386780 159.636200,74.781837 158.955139,81.630821 
	C158.625366,81.390579 158.046829,80.696159 158.047485,80.002296 
	C158.064148,62.467339 158.141586,44.932446 158.680328,27.385532 
	C159.420792,27.588511 159.689285,27.803492 159.957794,28.018475 
z"/>
<path fill="#FFBE00" opacity="1.000000" stroke="none" 
	d="
M251.904480,112.532776 
	C251.247101,111.636559 250.215744,110.296852 250.152313,108.912788 
	C249.939102,104.260040 250.070663,99.591499 250.066803,94.036301 
	C250.081741,91.456345 250.100159,89.769104 250.389435,87.760002 
	C250.761017,74.628540 250.861771,61.818935 250.962524,49.009331 
	C250.980148,42.290295 250.997772,35.571262 251.034943,28.378220 
	C251.369659,29.427755 251.956833,30.950813 251.959564,32.474915 
	C252.006973,59.006187 251.982681,85.537590 251.904480,112.532776 
z"/>
<path fill="#C4800E" opacity="1.000000" stroke="none" 
	d="
M249.001831,252.994186 
	C249.001877,251.607773 249.001923,250.221344 249.002197,247.958740 
	C249.337280,241.724182 249.672104,236.365814 250.282776,230.753296 
	C250.040710,228.661728 249.522797,226.824310 249.005478,224.743591 
	C249.006073,224.500275 249.007523,224.013672 249.007523,224.013672 
	C249.783966,220.880661 250.560410,217.747635 251.594452,214.326599 
	C251.850662,233.881516 251.849289,253.724442 251.489075,273.810364 
	C251.012207,272.098846 250.798492,270.144440 250.797241,268.189911 
	C250.795059,264.767151 250.923279,261.344299 250.996155,257.083649 
	C250.330902,255.161911 249.666367,254.078049 249.001831,252.994186 
z"/>
<path fill="#F7DA5C" opacity="1.000000" stroke="none" 
	d="
M61.114067,284.347412 
	C61.131088,284.005035 61.313614,283.656219 62.217121,283.152771 
	C69.958977,282.997131 76.979858,282.996124 84.469315,282.996826 
	C103.946663,282.999817 122.955437,283.001129 141.978699,283.250488 
	C141.993164,283.498535 141.987518,283.995422 141.519653,283.996826 
	C120.034721,284.000427 99.017662,284.002655 77.532837,284.003052 
	C71.866684,284.024078 66.668320,284.046997 61.469948,284.069885 
	C61.469948,284.069885 61.279575,284.340973 61.114067,284.347412 
z"/>
<path fill="#E7B014" opacity="1.000000" stroke="none" 
	d="
M167.732758,17.172840 
	C169.974670,17.444042 171.895035,17.956778 173.816635,17.961538 
	C196.436264,18.017590 219.056076,17.997541 241.763870,18.999521 
	C240.179337,18.999521 238.594818,18.999454 237.010284,18.999529 
	C216.198334,19.000511 195.386276,18.973110 174.574524,19.036221 
	C171.776596,19.044704 168.980057,19.509472 165.732788,19.605913 
	C165.992401,18.692045 166.702087,17.935217 167.732758,17.172840 
z"/>
<path fill="#F6D752" opacity="1.000000" stroke="none" 
	d="
M78.000610,284.004883 
	C99.017662,284.002655 120.034721,284.000427 141.526840,284.213928 
	C142.001907,284.429688 142.028992,284.863068 142.028992,284.863037 
	C120.997437,284.895111 99.965874,284.927185 78.468071,284.690186 
	C78.001823,284.421173 78.000610,284.004883 78.000610,284.004883 
z"/>
<path fill="#E7B014" opacity="1.000000" stroke="none" 
	d="
M196.007599,284.841248 
	C178.655273,284.886505 161.302963,284.931763 143.479843,284.703705 
	C143.009048,284.430389 143.025284,284.004883 143.491364,284.003357 
	C161.303436,283.999969 178.649399,283.998138 195.997803,284.207581 
	C196.000214,284.418823 196.007599,284.841248 196.007599,284.841248 
z"/>
<path fill="#F7DD67" opacity="1.000000" stroke="none" 
	d="
M50.993729,259.002441 
	C50.993729,259.002441 50.573715,259.005157 50.363995,259.009338 
	C50.118351,248.655869 50.082428,238.298233 50.309784,227.472778 
	C50.573059,227.004959 50.991539,227.003754 50.993858,227.471268 
	C50.999798,233.624634 51.003414,239.310486 51.004646,245.461212 
	C50.999416,250.284882 50.996574,254.643661 50.993729,259.002441 
z"/>
<path fill="#F8E17A" opacity="1.000000" stroke="none" 
	d="
M50.091988,173.533051 
	C50.426777,178.602310 50.768135,184.129059 50.977421,189.660812 
	C51.095879,192.791977 50.997509,195.931320 50.785110,199.536499 
	C50.573418,200.005997 50.156780,200.013092 50.156780,200.013092 
	C50.118946,191.339615 50.081112,182.666122 50.091988,173.533051 
z"/>
<path fill="#F8DF70" opacity="1.000000" stroke="none" 
	d="
M50.102791,200.478149 
	C50.156780,200.013092 50.573418,200.005997 50.781639,200.005432 
	C50.994675,204.691620 50.999489,209.378372 51.002541,214.992020 
	C50.997700,219.613876 50.994617,223.308807 50.991539,227.003754 
	C50.991539,227.003754 50.573059,227.004959 50.364182,227.007721 
	C50.119801,218.321381 50.084301,209.632309 50.102791,200.478149 
z"/>
<path fill="#E7B014" opacity="1.000000" stroke="none" 
	d="
M160.233521,27.809982 
	C159.689285,27.803492 159.420792,27.588511 159.039413,27.137430 
	C160.582718,24.485867 162.238907,22.070404 164.196075,19.510345 
	C163.167801,22.111000 161.838531,24.856247 160.233521,27.809982 
z"/>
<path fill="#F6D856" opacity="1.000000" stroke="none" 
	d="
M77.532837,284.003052 
	C78.000610,284.004883 78.001823,284.421173 78.003372,284.629150 
	C72.710800,284.800934 67.416679,284.764771 61.796257,284.399231 
	C66.668320,284.046997 71.866684,284.024078 77.532837,284.003052 
z"/>
<path fill="#D8980F" opacity="1.000000" stroke="none" 
	d="
M196.334915,284.907074 
	C196.007599,284.841248 196.000214,284.418823 196.002319,283.958832 
	C196.004410,283.498840 195.994095,283.001221 196.215973,282.994720 
	C196.437851,282.988220 196.881729,282.979858 196.912262,282.985229 
	C196.942810,282.990570 197.004120,282.999756 197.004120,282.999756 
	C197.255463,283.453857 197.506821,283.907959 197.870590,284.597839 
	C197.542755,284.880005 197.102493,284.926453 196.334915,284.907074 
z"/>
<path fill="#EEC231" opacity="1.000000" stroke="none" 
	d="
M143.025284,284.004883 
	C143.025284,284.004883 143.009048,284.430389 143.016296,284.642395 
	C142.858139,284.892151 142.692719,284.929932 142.278137,284.915405 
	C142.028992,284.863068 142.001907,284.429688 141.994720,284.212555 
	C141.987518,283.995422 141.993164,283.498535 142.035339,283.242035 
	C142.077515,282.985535 142.189514,282.965332 142.399506,282.970123 
	C142.609497,282.974915 143.033203,282.993530 143.028870,283.246338 
	C143.024780,283.667725 143.025024,283.836304 143.025284,284.004883 
z"/>
<path fill="#F2CD42" opacity="1.000000" stroke="none" 
	d="
M104.135986,132.362137 
	C104.382759,132.357025 104.600937,132.674179 104.847023,133.286377 
	C104.619080,133.282425 104.363243,132.983414 104.135986,132.362137 
z"/>
<path fill="#DD9E0F" opacity="1.000000" stroke="none" 
	d="
M250.722321,49.006454 
	C250.861771,61.818935 250.761017,74.628540 250.071014,87.470848 
	C249.318649,84.710869 249.001907,81.916359 249.035065,79.126007 
	C249.069092,76.261192 247.464111,75.429344 245.245758,76.190002 
	C240.750137,77.731506 236.313080,79.496231 231.987045,81.465767 
	C227.213379,83.639084 222.795593,86.922707 217.829895,88.227898 
	C214.620636,89.071419 210.518372,87.730835 207.152954,86.470200 
	C202.586777,84.759789 198.539932,81.558449 193.920853,80.114815 
	C183.137741,76.744705 172.040192,77.575287 161.001221,79.000610 
	C160.882126,75.413498 163.412979,75.119560 166.025894,75.009941 
	C174.462189,74.656036 183.026062,75.104370 191.295975,73.749420 
	C197.636612,72.710564 203.730728,69.692474 209.714554,67.055565 
	C220.129105,62.466148 230.338257,57.412537 240.713028,52.729694 
	C243.614502,51.420067 246.794647,50.727818 249.924316,49.377777 
	C250.001694,49.003204 250.482132,49.003574 250.722321,49.006454 
z"/>
<path fill="#DA9C0F" opacity="1.000000" stroke="none" 
	d="
M161.000763,79.411018 
	C172.040192,77.575287 183.137741,76.744705 193.920853,80.114815 
	C198.539932,81.558449 202.586777,84.759789 207.152954,86.470200 
	C210.518372,87.730835 214.620636,89.071419 217.829895,88.227898 
	C222.795593,86.922707 227.213379,83.639084 231.987045,81.465767 
	C236.313080,79.496231 240.750137,77.731506 245.245758,76.190002 
	C247.464111,75.429344 249.069092,76.261192 249.035065,79.126007 
	C249.001907,81.916359 249.318649,84.710869 249.800171,87.792702 
	C250.100159,89.769104 250.081741,91.456345 250.061646,93.567490 
	C244.900925,95.983978 239.722870,97.929039 234.587906,99.981918 
	C228.965195,102.229797 223.464706,104.832230 217.719879,106.688957 
	C216.403427,107.114441 213.614685,105.577225 212.684616,104.165291 
	C208.204742,97.364265 203.676147,90.663094 196.626221,86.242302 
	C195.111404,85.292404 193.132706,85.082245 191.153091,84.809128 
	C183.269287,84.728676 175.600098,84.370445 167.462585,84.044678 
	C165.282608,84.042831 163.570938,84.008514 161.432617,83.940048 
	C161.004059,82.544411 161.002182,81.182922 161.000763,79.411018 
z"/>
<path fill="#F2CB3F" opacity="1.000000" stroke="none" 
	d="
M106.007217,150.855331 
	C106.947739,144.706711 110.281631,140.750641 116.278114,138.711990 
	C119.687317,137.552948 122.821320,135.580963 126.072800,133.962128 
	C133.872070,130.079086 141.661758,126.176811 149.466171,122.304192 
	C156.555420,118.786446 163.673874,115.327415 170.752045,111.787674 
	C177.847046,108.239510 184.908127,104.623535 191.764496,101.148560 
	C193.406799,102.233253 194.724518,103.103561 196.375732,103.979698 
	C196.783859,105.694160 196.858475,107.402802 196.929932,109.942734 
	C196.841156,111.843697 196.755569,112.913368 196.326691,113.974579 
	C192.952393,111.446236 190.412277,112.410172 187.224411,114.285927 
	C180.144699,118.451645 172.726257,122.054329 165.367020,125.728546 
	C158.886444,128.964081 152.396988,132.216446 145.735001,135.045944 
	C135.922363,139.213608 127.268684,145.976410 116.500191,148.051025 
	C115.526901,148.238571 114.833313,149.877853 113.566864,150.882141 
	C110.751671,150.899338 108.379440,150.877335 106.007217,150.855331 
z"/>
<path fill="#C4800E" opacity="1.000000" stroke="none" 
	d="
M196.669983,113.983032 
	C196.755569,112.913368 196.841156,111.843697 196.948761,110.369606 
	C197.317078,111.704163 197.663391,113.443146 198.013641,115.587250 
	C198.014801,129.015137 198.011978,142.037918 198.007599,155.998032 
	C198.005569,166.922028 197.964554,176.908951 198.033356,186.895126 
	C198.050339,189.362030 198.319153,191.840729 198.651520,194.289673 
	C200.403290,207.197357 202.212463,220.097275 204.001709,232.999878 
	C205.667816,247.092728 207.633469,261.159149 208.880142,275.289032 
	C209.555786,282.946838 209.003021,282.995667 201.416229,282.999939 
	C200.251190,283.000580 199.086166,283.000366 197.462616,283.000122 
	C197.004120,282.999756 196.942810,282.990570 196.927277,282.518982 
	C196.848343,274.693817 196.784943,267.340302 196.791199,259.524292 
	C196.814102,253.701981 196.767349,248.342102 196.779419,242.520523 
	C196.797699,237.033859 196.757141,232.008881 196.777130,226.520599 
	C196.796356,219.032669 196.755051,212.008087 196.786926,204.525879 
	C196.807602,200.040451 196.755096,196.012634 196.767517,191.521973 
	C196.789383,183.699371 196.746353,176.339630 196.779785,168.518311 
	C196.798355,162.362534 196.740463,156.668320 196.752563,150.512817 
	C196.772766,143.359985 196.722992,136.668457 196.746552,129.517624 
	C196.769913,124.033234 196.719940,119.008133 196.669983,113.983032 
z"/>
<path fill="#CC840E" opacity="1.000000" stroke="none" 
	d="
M204.360291,233.061874 
	C202.212463,220.097275 200.403290,207.197357 198.651520,194.289673 
	C198.319153,191.840729 198.050339,189.362030 198.033356,186.895126 
	C197.964554,176.908951 198.005569,166.922028 198.010864,156.466522 
	C199.000931,159.065262 200.428101,162.067474 200.893478,165.212006 
	C202.724304,177.582977 203.895309,190.059967 206.007172,202.378281 
	C207.669510,212.074463 210.127075,221.655975 212.668884,231.171570 
	C214.192459,236.875214 215.961792,237.118027 220.377670,233.128342 
	C220.991806,232.573486 221.673050,231.528839 222.247574,231.578918 
	C230.680862,232.313904 235.928009,224.548004 243.695938,223.639511 
	C245.282654,223.453949 246.896927,223.504211 248.753021,223.729721 
	C249.007523,224.013672 249.006073,224.500275 249.003510,225.149719 
	C249.336273,227.535263 249.671600,229.271347 250.006927,231.007446 
	C249.672104,236.365814 249.337280,241.724182 249.002029,247.542801 
	C245.801788,246.426239 243.239151,247.624405 240.303879,249.261337 
	C233.623718,252.986755 226.694595,256.284241 219.757553,259.521942 
	C216.725815,260.936951 214.042206,259.814667 212.912186,256.648346 
	C211.090561,251.544235 209.709595,246.284531 207.984177,241.143692 
	C207.067596,238.412735 205.818085,235.793518 204.360291,233.061874 
z"/>
<path fill="#CC840E" opacity="1.000000" stroke="none" 
	d="
M249.001801,253.370605 
	C249.666367,254.078049 250.330902,255.161911 250.994034,256.621521 
	C250.329010,255.913864 249.665390,254.830444 249.001801,253.370605 
z"/>
<path fill="#CC840E" opacity="1.000000" stroke="none" 
	d="
M249.449387,276.532562 
	C249.415985,276.476685 249.482788,276.588440 249.449387,276.532562 
z"/>
<path fill="#F7DB61" opacity="1.000000" stroke="none" 
	d="
M142.018387,233.001877 
	C136.000443,229.202225 130.891754,233.571854 125.847984,235.353653 
	C114.466217,239.374390 103.395737,244.283585 92.230949,248.909378 
	C79.551270,254.162811 66.908424,259.505127 54.240631,264.787354 
	C53.797554,264.972107 53.258808,264.927429 52.382885,264.528503 
	C52.003944,259.045868 52.006775,254.024475 52.383835,248.960083 
	C60.459965,245.913788 68.179611,242.955093 75.860252,239.898376 
	C94.606621,232.437790 113.387718,225.059128 132.024063,217.332077 
	C135.569550,215.862030 138.586029,214.574387 142.028763,217.421005 
	C142.099762,219.234085 142.157242,220.628891 142.167267,222.477661 
	C142.085983,226.288376 142.052185,229.645126 142.018387,233.001877 
z"/>
<path fill="#EAB821" opacity="1.000000" stroke="none" 
	d="
M142.030792,233.459564 
	C142.052185,229.645126 142.085983,226.288376 142.513367,222.480560 
	C145.866058,224.603577 148.828308,225.838501 151.923630,222.184845 
	C152.188324,221.872421 152.897675,221.981705 153.335617,221.764404 
	C162.646896,217.144608 172.014847,212.632370 181.226074,207.820297 
	C186.172897,205.235992 190.834320,202.060394 196.713745,204.983490 
	C196.755051,212.008087 196.796356,219.032669 196.405823,226.514496 
	C192.292999,225.372620 188.913651,226.107162 185.615860,228.154144 
	C182.819611,229.889771 179.993668,231.604233 177.057037,233.081970 
	C168.657837,237.308441 160.182175,241.382690 151.766541,245.576889 
	C149.289841,246.811234 146.996338,248.143356 144.838013,244.994293 
	C144.400024,244.355255 143.116653,244.295654 142.223007,243.968933 
	C142.223007,243.968933 142.116714,243.968185 142.065369,243.981293 
	C142.023758,240.635361 142.033463,237.276321 142.030792,233.459564 
z"/>
<path fill="#F7DE6C" opacity="1.000000" stroke="none" 
	d="
M52.009602,249.003082 
	C52.006775,254.024475 52.003944,259.045868 52.004364,264.534241 
	C52.007607,267.605835 52.007607,270.210449 52.007607,272.815033 
	C51.670769,272.817383 51.333935,272.819733 50.997097,272.822083 
	C50.997097,268.525909 50.997097,264.229767 50.995415,259.468018 
	C50.996574,254.643661 50.999416,250.284882 51.250786,245.461990 
	C51.499310,244.997879 51.991760,244.996338 51.994976,245.397064 
	C52.001995,246.866226 52.005798,247.934647 52.009602,249.003082 
z"/>
<path fill="#F8E27F" opacity="1.000000" stroke="none" 
	d="
M105.755661,150.902313 
	C108.379440,150.877335 110.751671,150.899338 114.022301,150.927139 
	C118.280243,150.957428 121.639786,150.981918 124.925171,151.378189 
	C124.526855,152.106873 124.269165,152.651611 123.868828,152.793304 
	C113.297218,156.535019 102.625427,160.010605 92.148422,163.998428 
	C78.688858,169.121506 65.383682,174.650208 52.011993,180.004150 
	C52.011993,176.351990 52.011993,172.699829 52.011993,168.919037 
	C64.204796,164.164307 76.523056,160.135025 88.071419,154.521805 
	C93.622734,151.823532 99.040771,152.804123 104.705536,151.301147 
	C105.165054,150.987701 105.334579,150.968491 105.755661,150.902313 
z"/>
<path fill="#E9B61D" opacity="1.000000" stroke="none" 
	d="
M142.161560,244.413223 
	C143.116653,244.295654 144.400024,244.355255 144.838013,244.994293 
	C146.996338,248.143356 149.289841,246.811234 151.766541,245.576889 
	C160.182175,241.382690 168.657837,237.308441 177.057037,233.081970 
	C179.993668,231.604233 182.819611,229.889771 185.615860,228.154144 
	C188.913651,226.107162 192.292999,225.372620 196.345276,226.977814 
	C196.757141,232.008881 196.797699,237.033859 196.415344,242.515961 
	C193.609467,243.004654 190.884155,242.286331 188.900253,243.192062 
	C177.774750,248.271271 166.759674,253.607468 155.853470,259.144623 
	C151.397507,261.406952 147.227509,263.817780 142.148041,260.568359 
	C142.071808,257.413757 142.043365,254.707657 142.014938,252.001556 
	C142.043335,249.620209 142.071732,247.238861 142.161560,244.413223 
z"/>
<path fill="#F6D856" opacity="1.000000" stroke="none" 
	d="
M141.661392,251.965424 
	C142.043365,254.707657 142.071808,257.413757 142.090515,260.812195 
	C142.060913,261.670105 142.041016,261.835693 141.662384,261.942505 
	C139.052383,261.584747 136.462692,260.407654 134.602905,261.124451 
	C118.357887,267.385376 102.234093,273.962189 86.115158,280.545227 
	C85.225266,280.908691 84.697220,282.158081 84.000740,282.995117 
	C76.979858,282.996124 69.958977,282.997131 62.469669,282.996643 
	C62.903008,281.979889 63.607101,280.490143 64.735870,280.019928 
	C84.893585,271.623230 105.096657,263.335175 125.307236,255.065948 
	C128.507095,253.756714 131.721008,252.357742 135.062469,251.566086 
	C137.006454,251.105515 139.217163,251.770676 141.661392,251.965424 
z"/>
<path fill="#F8E17A" opacity="1.000000" stroke="none" 
	d="
M52.008698,180.468384 
	C65.383682,174.650208 78.688858,169.121506 92.148422,163.998428 
	C102.625427,160.010605 113.297218,156.535019 123.868828,152.793304 
	C124.269165,152.651611 124.526855,152.106873 125.370834,151.362228 
	C129.918350,151.662262 133.946075,152.350037 138.132095,153.338623 
	C139.529678,156.093155 140.768936,158.546875 141.625092,160.957108 
	C139.008804,160.938766 136.519440,160.318848 134.581894,161.088379 
	C114.088989,169.227356 93.698860,177.624588 73.246506,185.866486 
	C66.216522,188.699432 59.091576,191.296722 52.010010,194.001663 
	C52.008472,189.645325 52.006935,185.288971 52.008698,180.468384 
z"/>
<path fill="#F8E077" opacity="1.000000" stroke="none" 
	d="
M52.006859,194.451508 
	C59.091576,191.296722 66.216522,188.699432 73.246506,185.866486 
	C93.698860,177.624588 114.088989,169.227356 134.581894,161.088379 
	C136.519440,160.318848 139.008804,160.938766 141.639557,161.402740 
	C142.095764,164.268356 142.154388,166.644821 142.156509,169.390778 
	C142.074295,170.507492 142.048599,171.254700 141.660416,171.963074 
	C139.349319,171.546997 137.064209,170.309891 135.502457,170.921082 
	C111.042053,180.494049 86.689987,190.343384 62.268589,200.017014 
	C58.971943,201.322845 55.434769,202.021454 52.008972,203.001221 
	C52.007217,200.301270 52.005463,197.601318 52.006859,194.451508 
z"/>
<path fill="#F8DF73" opacity="1.000000" stroke="none" 
	d="
M52.005787,203.455200 
	C55.434769,202.021454 58.971943,201.322845 62.268589,200.017014 
	C86.689987,190.343384 111.042053,180.494049 135.502457,170.921082 
	C137.064209,170.309891 139.349319,171.546997 141.673279,172.416840 
	C142.037582,175.940002 142.026550,178.970581 141.647797,181.960220 
	C139.004974,181.544998 136.348206,180.212280 134.513168,180.943039 
	C113.635643,189.257126 92.928909,197.999222 72.071297,206.364578 
	C65.545654,208.981812 58.703724,210.810440 52.006569,213.000061 
	C52.005245,209.969757 52.003925,206.939453 52.005787,203.455200 
z"/>
<path fill="#F8DF70" opacity="1.000000" stroke="none" 
	d="
M52.003059,213.332977 
	C58.703724,210.810440 65.545654,208.981812 72.071297,206.364578 
	C92.928909,197.999222 113.635643,189.257126 134.513168,180.943039 
	C136.348206,180.212280 139.004974,181.544998 141.660202,182.378845 
	C142.100220,184.234467 142.160110,185.630508 142.173126,187.422058 
	C142.092377,188.879425 142.058472,189.941284 141.682541,190.953049 
	C139.448822,188.792831 137.646378,187.894180 134.635406,189.515640 
	C130.141785,191.935516 125.306099,193.739990 120.558578,195.664764 
	C107.195511,201.082596 93.853027,206.557144 80.405304,211.758209 
	C71.022949,215.386948 61.480595,218.601990 52.006966,221.564133 
	C52.000317,219.083481 51.996414,217.040512 51.992508,214.997559 
	C51.994854,214.553665 51.997200,214.109772 52.003059,213.332977 
z"/>
<path fill="#F8E077" opacity="1.000000" stroke="none" 
	d="
M51.746143,214.998230 
	C51.996414,217.040512 52.000317,219.083481 52.003944,222.022003 
	C52.005482,226.278976 52.007305,229.640411 52.006546,233.462341 
	C51.999893,237.613998 51.995827,241.305176 51.991760,244.996338 
	C51.991760,244.996338 51.499310,244.997879 51.253174,244.997101 
	C51.003414,239.310486 50.999798,233.624634 50.993858,227.471268 
	C50.994617,223.308807 50.997700,219.613876 51.003918,215.457947 
	C51.007053,214.996948 51.499779,214.998901 51.746143,214.998230 
z"/>
<path fill="#CE880E" opacity="1.000000" stroke="none" 
	d="
M250.282776,230.753296 
	C249.671600,229.271347 249.336273,227.535263 249.002914,225.393036 
	C249.522797,226.824310 250.040710,228.661728 250.282776,230.753296 
z"/>
<path fill="#F6D752" opacity="1.000000" stroke="none" 
	d="
M84.469315,282.996826 
	C84.697220,282.158081 85.225266,280.908691 86.115158,280.545227 
	C102.234093,273.962189 118.357887,267.385376 134.602905,261.124451 
	C136.462692,260.407654 139.052383,261.584747 141.673996,262.409851 
	C142.101044,268.296875 142.157745,273.657715 142.168686,279.412109 
	C142.145126,280.858856 142.167328,281.912079 142.189514,282.965332 
	C142.189514,282.965332 142.077515,282.985535 142.020874,282.993988 
	C122.955437,283.001129 103.946663,282.999817 84.469315,282.996826 
z"/>
<path fill="#E8B319" opacity="1.000000" stroke="none" 
	d="
M143.491364,284.003357 
	C143.025024,283.836304 143.024780,283.667725 143.493790,283.248413 
	C161.306732,282.998840 178.650421,283.000031 195.994095,283.001221 
	C195.994095,283.001221 196.004410,283.498840 195.999893,283.747589 
	C178.649399,283.998138 161.303436,283.999969 143.491364,284.003357 
z"/>
<path fill="#E7B014" opacity="1.000000" stroke="none" 
	d="
M196.215973,282.994720 
	C178.650421,283.000031 161.306732,282.998840 143.498138,282.995605 
	C143.033203,282.993530 142.609497,282.974915 142.399506,282.970123 
	C142.167328,281.912079 142.145126,280.858856 142.514465,279.412903 
	C146.222412,280.965210 149.118652,280.121155 152.407501,278.394012 
	C163.527145,272.554565 174.894791,267.188538 186.039764,261.395569 
	C189.563126,259.564148 192.808319,257.849182 196.721558,259.986755 
	C196.784943,267.340302 196.848343,274.693817 196.896729,282.513611 
	C196.881729,282.979858 196.437851,282.988220 196.215973,282.994720 
z"/>
<path fill="#F1C93C" opacity="1.000000" stroke="none" 
	d="
M137.973785,153.037811 
	C133.946075,152.350037 129.918350,151.662262 125.444977,150.990448 
	C121.639786,150.981918 118.280243,150.957428 114.465271,150.887939 
	C114.833313,149.877853 115.526901,148.238571 116.500191,148.051025 
	C127.268684,145.976410 135.922363,139.213608 145.735001,135.045944 
	C152.396988,132.216446 158.886444,128.964081 165.367020,125.728546 
	C172.726257,122.054329 180.144699,118.451645 187.224411,114.285927 
	C190.412277,112.410172 192.952393,111.446236 196.326691,113.974579 
	C196.719940,119.008133 196.769913,124.033234 196.403351,129.516312 
	C193.714310,129.627747 191.192139,128.486603 189.222977,129.105362 
	C185.490768,130.278168 182.110443,132.534546 178.522705,134.209686 
	C165.019760,140.514328 151.492157,146.766190 137.973785,153.037811 
z"/>
<path fill="#ECBE2A" opacity="1.000000" stroke="none" 
	d="
M142.024567,191.003159 
	C142.058472,189.941284 142.092377,188.879425 142.519440,187.420807 
	C147.246063,189.817688 151.023376,187.417603 154.745132,185.597137 
	C164.535767,180.808090 174.277771,175.917847 183.992630,170.976486 
	C188.049194,168.913132 192.082077,167.210724 196.703308,168.979874 
	C196.746353,176.339630 196.789383,183.699371 196.404694,191.516327 
	C193.452820,192.078949 190.561691,191.417953 188.467331,192.420868 
	C178.790543,197.054749 169.518692,202.563553 159.728119,206.918930 
	C154.350540,209.311172 149.081192,215.139450 142.142578,209.562317 
	C142.064423,206.410278 142.041733,203.706528 142.030762,200.548523 
	C142.036499,197.063889 142.030533,194.033524 142.024567,191.003159 
z"/>
<path fill="#F0C637" opacity="1.000000" stroke="none" 
	d="
M138.132095,153.338623 
	C151.492157,146.766190 165.019760,140.514328 178.522705,134.209686 
	C182.110443,132.534546 185.490768,130.278168 189.222977,129.105362 
	C191.192139,128.486603 193.714310,129.627747 196.330017,129.975601 
	C196.722992,136.668457 196.772766,143.359985 196.413574,150.508331 
	C193.353653,149.150543 190.968262,149.372009 188.010849,150.881973 
	C176.997421,156.505066 165.731689,161.632843 154.697052,167.216095 
	C150.618881,169.279541 146.868195,171.758148 142.213013,169.021286 
	C142.154388,166.644821 142.095764,164.268356 142.022675,161.446259 
	C140.768936,158.546875 139.529678,156.093155 138.132095,153.338623 
z"/>
<path fill="#EEC231" opacity="1.000000" stroke="none" 
	d="
M142.156509,169.390778 
	C146.868195,171.758148 150.618881,169.279541 154.697052,167.216095 
	C165.731689,161.632843 176.997421,156.505066 188.010849,150.881973 
	C190.968262,149.372009 193.353653,149.150543 196.343597,150.969604 
	C196.740463,156.668320 196.798355,162.362534 196.779785,168.518311 
	C192.082077,167.210724 188.049194,168.913132 183.992630,170.976486 
	C174.277771,175.917847 164.535767,180.808090 154.745132,185.597137 
	C151.023376,187.417603 147.246063,189.817688 142.566299,187.025299 
	C142.160110,185.630508 142.100220,184.234467 142.027924,182.419800 
	C142.026550,178.970581 142.037582,175.940002 142.035767,172.455658 
	C142.048599,171.254700 142.074295,170.507492 142.156509,169.390778 
z"/>
<path fill="#E8B319" opacity="1.000000" stroke="none" 
	d="
M196.791199,259.524292 
	C192.808319,257.849182 189.563126,259.564148 186.039764,261.395569 
	C174.894791,267.188538 163.527145,272.554565 152.407501,278.394012 
	C149.118652,280.121155 146.222412,280.965210 142.560226,279.019379 
	C142.157745,273.657715 142.101044,268.296875 142.032730,262.468658 
	C142.041016,261.835693 142.060913,261.670105 142.138336,261.260651 
	C147.227509,263.817780 151.397507,261.406952 155.853470,259.144623 
	C166.759674,253.607468 177.774750,248.271271 188.900253,243.192062 
	C190.884155,242.286331 193.609467,243.004654 196.356522,242.977661 
	C196.767349,248.342102 196.814102,253.701981 196.791199,259.524292 
z"/>
<path fill="#ECBC27" opacity="1.000000" stroke="none" 
	d="
M142.198029,210.010620 
	C149.081192,215.139450 154.350540,209.311172 159.728119,206.918930 
	C169.518692,202.563553 178.790543,197.054749 188.467331,192.420868 
	C190.561691,191.417953 193.452820,192.078949 196.339783,191.979156 
	C196.755096,196.012634 196.807602,200.040451 196.786926,204.525879 
	C190.834320,202.060394 186.172897,205.235992 181.226074,207.820297 
	C172.014847,212.632370 162.646896,217.144608 153.335617,221.764404 
	C152.897675,221.981705 152.188324,221.872421 151.923630,222.184845 
	C148.828308,225.838501 145.866058,224.603577 142.560852,222.026581 
	C142.157242,220.628891 142.099762,219.234085 142.039932,216.983505 
	C142.091080,214.088699 142.144562,212.049652 142.198029,210.010620 
z"/>
<path fill="#F7DD67" opacity="1.000000" stroke="none" 
	d="
M142.142578,209.562317 
	C142.144562,212.049652 142.091080,214.088699 142.026428,216.565231 
	C138.586029,214.574387 135.569550,215.862030 132.024063,217.332077 
	C113.387718,225.059128 94.606621,232.437790 75.860252,239.898376 
	C68.179611,242.955093 60.459965,245.913788 52.383835,248.960083 
	C52.005798,247.934647 52.001995,246.866226 51.994976,245.397064 
	C51.995827,241.305176 51.999893,237.613998 52.396721,233.454971 
	C67.742645,227.218964 82.750641,221.587997 97.631424,215.638824 
	C109.312080,210.969055 120.884689,206.017700 132.398300,200.948410 
	C135.789612,199.455261 138.819153,198.980591 142.019043,201.002792 
	C142.041733,203.706528 142.064423,206.410278 142.142578,209.562317 
z"/>
<path fill="#F7DE6C" opacity="1.000000" stroke="none" 
	d="
M142.030746,200.548523 
	C138.819153,198.980591 135.789612,199.455261 132.398300,200.948410 
	C120.884689,206.017700 109.312080,210.969055 97.631424,215.638824 
	C82.750641,221.587997 67.742645,227.218964 52.399307,232.994476 
	C52.007305,229.640411 52.005482,226.278976 52.006687,222.459686 
	C61.480595,218.601990 71.022949,215.386948 80.405304,211.758209 
	C93.853027,206.557144 107.195511,201.082596 120.558578,195.664764 
	C125.306099,193.739990 130.141785,191.935516 134.635406,189.515640 
	C137.646378,187.894180 139.448822,188.792831 141.682526,190.953049 
	C142.030533,194.033524 142.036499,197.063889 142.030746,200.548523 
z"/>
</svg>